<svg id="Layer_1" data-name="Layer 1" xmlns="http://www.w3.org/2000/svg" xmlns:xlink="http://www.w3.org/1999/xlink" viewBox="0 0 512 512"><defs><style>.cls-1{fill:none;}.cls-2{fill:#1a1b2e;}.cls-3{clip-path:url(#clip-path);}.cls-4{clip-path:url(#clip-path-2);}.cls-5{fill:#fff;}</style><clipPath id="clip-path"><path class="cls-1" d="M123.58,122.89c73.27-73.11,191.89-73.11,265.16,0a186.88,186.88,0,0,1,0,264.66,18.73,18.73,0,0,1-26.49-26.5,149.45,149.45,0,0,0,0-211.65A150,150,0,0,0,106.16,255.47a148,148,0,0,0,43.93,105.58,18.74,18.74,0,1,1-26.51,26.5,186.88,186.88,0,0,1,0-264.66ZM303,185.4a16.51,16.51,0,1,1,23.34,23.35h0l-54.49,54.37a16.47,16.47,0,0,1-23.3,0l0,0a16.49,16.49,0,0,1,0-23.33h0Z"/></clipPath><clipPath id="clip-path-2"><rect class="cls-1" x="-1260.39" y="-70.5" width="6749.97" height="900"/></clipPath></defs><circle class="cls-2" cx="256.16" cy="255.56" r="250"/><g class="cls-3"><g id="Group_29" data-name="Group 29"><g class="cls-4"><g id="Group_28" data-name="Group 28"><path id="Path_28" data-name="Path 28" class="cls-5" d="M-22.9-14.25H539.6V492H-22.9Z"/></g></g></g></g></svg>