<svg width="297" height="297" xmlns="http://www.w3.org/2000/svg">

 <g>
  <title>Layer 1</title>
  <g>
   <path fill="white" d="m285.841,130.901c-2.174,-3.0245 -4.284,-6.1197 -5.92,-9.5035c-1.455,-3.0097 -2.532,-6.2237 -3.609,-9.4381c-1.315,-3.9241 -2.631,-7.849 -4.634,-11.4039c-26.354,-46.7623 -73.379,-61.19215 -118.821,-60.53415c-41.688,0.60274 -110.3906,24.55365 -141.3544,96.97895c-1.98493,4.7487 -3.72765,9.6107 -5.19688,14.5607c-2.26866,7.635 -3.94151,15.5 -5.04163,23.457l-0.04515,-0.007c-5.07754,50.354 6.30267,76.536 23.09836,81.828c11.2411,3.542 21.1455,-1.272 32.7727,-11.045c12.7818,-10.744 17.7952,-18.849 16.3794,-30.004c-1.4632,-11.532 -13.9091,-19.921 -25.1765,-22.902c-16.3003,-4.71 -9.7143,-15.17 -9.7143,-15.17c0,0 17.5472,12.586 45.883,9.371c25.8504,-2.933 30.7734,-8.334 30.7734,-8.334c0,-26.653 14.341,-45.264 33.049,-47.0826c-13.007,6.1427 -20.546,27.3076 -20.546,44.4716l0,45.43l6.467,0c18.957,0 35.145,-19.075 35.145,-40.615l0,-8.92c0,0 14.197,-7.707 34.335,-9.993c9.351,-1.061 16.704,-0.132 23.057,1.711c-3.611,-4.501 -5.931,-9.806 -6.123,-16.042c-0.085,-2.775 4.5,-4 5.5,0c3.469,15.7 12.287,22.645 34.012,29.356c4.415,0.913 9.306,1.234 15.02,0.585c9.996,-1.386 19.98,-6.931 21.594,-18.676c1.512,-10.999 -3.955,-18.516 -9.547,-26.2064c-0.453,-0.6224 -0.906,-1.246 -1.357,-1.8726zm-108.262,45.477c2.548,25.532 -11.96,36.337 -11.96,36.337c20.223,-1.244 43.12,-19.768 41.999,-43.517c0,0 -8.964,-1.292 -30.039,7.18zm76.04,-40.6629c4.695,0 8.5,-4.0295 8.5,-9c0,-4.9706 -3.805,-9 -8.5,-9c-4.694,0 -8.5,4.0294 -8.5,9c0,4.9705 3.806,9 8.5,9z" clip-rule="evenodd" fill-rule="evenodd"/>
   <path fill="#17AF66" d="m285.802,131.1661c-2.178,-3.0302 -4.294,-6.131 -5.935,-9.5201c-1.46,-3.0142 -2.542,-6.2324 -3.624,-9.4512c-1.321,-3.9292 -2.642,-7.8592 -4.651,-11.42c-26.43,-46.8395 -73.485,-61.34982 -118.936,-60.75751c-41.696,0.54248 -110.3777,24.41311 -141.2407,96.85331c-1.97836,4.7494 -3.71424,9.6124 -5.17645,14.5654c-2.25784,7.638 -3.91938,15.507 -5.00795,23.469l-0.04517,-0.007c-5.00403,50.388 6.41735,76.609 23.22437,81.93c11.2488,3.561 21.1481,-1.243 32.7633,-11.007c12.7686,-10.734 17.771,-18.839 16.3384,-30.005c-1.4806,-11.544 -13.9415,-19.958 -25.2158,-22.958c-16.3106,-4.738 -9.7387,-15.196 -9.7387,-15.196c0,0 17.5695,12.622 45.9065,9.445c25.8512,-2.898 30.7682,-8.296 30.7682,-8.296c-0.04,-26.675 14.276,-45.2805 32.986,-47.0734c-13.001,6.1288 -20.51,27.3004 -20.485,44.4784l0.068,45.468l6.468,0.009c18.961,0.028 35.124,-19.039 35.092,-40.597l-0.013,-8.928c0,0 14.188,-7.693 34.327,-9.95c9.532,-1.069 16.991,-0.072 23.431,1.854c-3.746,-4.562 -6.167,-9.957 -6.373,-16.316c-0.089,-2.774 4.498,-3.991 5.505,0.008c3.589,16.12 12.81,23.02 35.869,29.934c3.901,0.634 8.186,0.795 13.072,0.247c9.996,-1.374 19.974,-6.908 21.571,-18.66c1.496,-11.007 -3.983,-18.538 -9.588,-26.2428c-0.454,-0.6236 -0.908,-1.2483 -1.36,-1.8761zm-108.104,45.1749c2.588,25.524 -11.916,36.302 -11.916,36.302c20.239,-1.214 43.128,-19.695 41.971,-43.434c0,0 -8.974,-1.304 -30.055,7.132zm75.039,-44.5303c3.593,0.0052 6.501,-3.123 6.495,-6.987c-0.006,-3.8641 -2.923,-7.0008 -6.516,-7.006c-3.593,-0.0052 -6.501,3.123 -6.495,6.987c0.006,3.8641 2.923,7.0008 6.516,7.006z" clip-rule="evenodd" fill-rule="evenodd"/>
  </g>
 </g>
</svg>