<svg width="64" height="70" xmlns="http://www.w3.org/2000/svg" xml:space="preserve" version="1.1">

 <g>
  <title>Layer 1</title>
  <g id="Ebene_1">
   <g id="svg_1">
    <path id="svg_2" fill="#FBBF09" d="m33.6,62.31277l0,7.7c1.2,-0.2 2.4,-0.6 3.4,-1.2l22.1,-12.6c3.1,-1.8 5,-5 5,-8.6l0,-25.1c0,-1.1 -0.2,-2.2 -0.6,-3.3l-6.7,3.9l-18.5,10.6c-3.8,2.7 -4.6,5.2 -4.7,8.2l0,20.4z" class="st2"/>
    <path id="svg_3" fill="#00A275" d="m55.3,20.41277l6.7,-3.9c-0.8,-1.1 -1.8,-2 -2.9,-2.6l-22.1,-12.6c-3.1,-1.8 -6.9,-1.7 -9.9,0l-22,12.6c-1.2,0.7 -2.2,1.6 -3,2.7l6.7,3.9l18.5,10.6c2.2,1.4 3.7,2.8 4.7,4.4c1,-1.6 2.5,-3 4.7,-4.4l18.6,-10.7z" class="st3"/>
    <path id="svg_4" fill="#EB8A04" d="m7.4,23.21277l-6.8,-3.9c-0.4,1 -0.6,2.1 -0.6,3.2l0,25.2c0,3.5 1.9,6.8 5,8.6l22,12.6c1,0.6 2.2,1 3.4,1.2l0,-7.7l0,-20.5c-0.1,-3 -0.9,-5.5 -4.7,-8.2l-18.3,-10.5z" class="st4"/>
    <path id="svg_5" fill="#F5EA64" d="m63.5,19.21277l-6.7,3.9c0.2,0.7 0.4,1.5 0.4,2.3l0,19.4c0,2.8 -1.5,5.5 -4,6.9l-17,9.7c-0.8,0.4 -1.6,0.7 -2.5,0.9l0,7.7c1.2,-0.2 2.4,-0.6 3.4,-1.2l22,-12.6c3.1,-1.8 5,-5 5,-8.6l0,-25.1c0,-1.1 -0.2,-2.2 -0.6,-3.3z" class="st5"/>
    <path id="svg_6" fill="#48C0ED" d="m11.1,18.51277l16.9,-9.7c2.5,-1.4 5.6,-1.4 8,0l17,9.7c0.9,0.5 1.6,1.2 2.2,1.9l6.7,-3.9c-0.8,-1.1 -1.8,-2 -2.9,-2.6l-22,-12.6c-3.1,-1.8 -6.9,-1.7 -9.9,0l-22,12.6c-1.2,0.7 -2.2,1.6 -3,2.7l6.7,3.9c0.7,-0.8 1.4,-1.5 2.3,-2z" class="st6"/>
    <path id="svg_7" fill="#FDD657" d="m28,61.41277l-16.9,-9.7c-2.5,-1.4 -4,-4.1 -4,-6.9l0,-19.4c0,-0.8 0.1,-1.5 0.3,-2.2l-6.8,-3.9c-0.4,1 -0.6,2.1 -0.6,3.2l0,25.2c0,3.5 1.9,6.8 5,8.6l22,12.6c1,0.6 2.2,1 3.4,1.2l0,-7.7c-0.8,-0.3 -1.6,-0.6 -2.4,-1z" class="st7"/>
   </g>
  </g>
 </g>
</svg>