<svg width="33" height="33" xmlns="http://www.w3.org/2000/svg">

 <g>
  <title>Layer 1</title>
  <path id="svg_1" fill="#bd483b" class="st1" d="m16.31623,0l-3.106,11.038l0,11.143l3.106,11.143l3.194,-11.143l0,-11.143l-3.194,-11.038z"/>
  <path id="svg_2" d="m16.31623,0l-15.386,5.542l2.186,20.492l13.2,7.29" fill="#e64e3d"/>
  <path id="svg_3" fill="#bd483b" class="st1" d="m16.31623,33.324l13.268,-7.365l2.483,-20.49l-15.751,-5.469"/>
  <path id="svg_4" fill="#fec82f" class="st3" d="m13.52423,24.75a9.358,9.358 0 0 1 -3.94,-2.431l-0.003,-0.002a9.342,9.342 0 0 1 -2.238,-3.814c0.251,0.233 0.518,0.447 0.796,0.647c0.003,0.008 0.008,0.016 0.011,0.027c-0.003,-0.012 -0.008,-0.02 -0.011,-0.027a8.622,8.622 0 0 0 1.696,0.923c0.177,0.07 0.36,0.135 0.542,0.195c0.011,0.006 0.024,0.006 0.035,0.01c0.032,0.012 0.065,0.023 0.097,0.033a1.702,1.702 0 0 0 1.39,1.504c0.287,1.157 0.833,2.146 1.625,2.935zm0.58,-13.294c0,0.324 0.088,0.627 0.243,0.883c-1.25,1.753 -2.108,3.656 -2.479,5.539c-0.041,0.209 -0.077,0.416 -0.105,0.619c-0.429,0.113 -0.79,0.393 -1.016,0.762a0.071,0.071 0 0 1 -0.035,-0.01c-0.023,-0.006 -0.04,-0.014 -0.061,-0.021a7.157,7.157 0 0 1 -2.796,-1.715a6.814,6.814 0 0 1 -0.311,-0.332l-0.041,-0.049l-0.115,-0.137l-0.047,-0.059c-0.014,-0.018 -0.024,-0.031 -0.037,-0.045c-0.005,-0.01 -0.013,-0.016 -0.017,-0.023c-0.02,-0.022 -0.037,-0.047 -0.053,-0.068c-0.008,-0.012 -0.017,-0.022 -0.023,-0.029l-0.004,-0.008c-0.013,-0.014 -0.024,-0.033 -0.037,-0.049a3.928,3.928 0 0 1 -0.157,-0.225c-0.009,-0.012 -0.019,-0.024 -0.025,-0.039a0.146,0.146 0 0 1 -0.02,-0.027a9.338,9.338 0 0 1 2.227,-6.703a9.361,9.361 0 0 1 4.299,-2.847c0.026,0.182 0.059,0.367 0.095,0.553c0.192,0.967 0.513,1.942 0.949,2.898c-0.271,0.3 -0.434,0.698 -0.434,1.132zm-0.998,8.685a0.89,0.89 0 0 1 -0.308,0.68a0.899,0.899 0 0 1 -1.068,0.09a0.91,0.91 0 0 1 -0.342,-0.375a0.901,0.901 0 0 1 -0.089,-0.395a0.896,0.896 0 0 1 0.377,-0.732a0.898,0.898 0 0 1 1.285,0.245a0.86,0.86 0 0 1 0.145,0.487zm3.601,-8.685a0.902,0.902 0 0 1 -0.902,0.905c-0.044,0 -0.087,-0.002 -0.128,-0.006c-0.008,-0.004 -0.016,-0.004 -0.025,-0.006a0.902,0.902 0 0 1 0.153,-1.794l0.038,0a0.907,0.907 0 0 1 0.864,0.901z"/>
  <path id="svg_5" fill="#df9c26" class="st4" d="m25.68223,15.805c0,0.907 -0.129,1.782 -0.368,2.61a12.751,12.751 0 0 1 -2.4,-0.914a1.694,1.694 0 0 0 -0.092,-0.975a14.936,14.936 0 0 0 2.499,-3.306c0.234,0.821 0.361,1.69 0.361,2.585zm-0.871,-3.947a11.29,11.29 0 0 1 -0.201,0.416a13.81,13.81 0 0 1 -2.487,3.434a1.703,1.703 0 0 0 -1.883,0.084a16.75,16.75 0 0 1 -1.49,-1.327a16.677,16.677 0 0 1 -1.647,-1.909a1.695,1.695 0 0 0 0.168,-1.964a15.981,15.981 0 0 1 3.917,-2.788a9.414,9.414 0 0 1 3.623,4.054zm-2.664,5.307a0.902,0.902 0 0 1 -1.804,0.081c0.011,-0.01 0.021,-0.016 0.028,-0.022c-0.01,-0.008 -0.021,-0.014 -0.03,-0.023l-0.001,-0.037a0.907,0.907 0 0 1 1.165,-0.864a0.909,0.909 0 0 1 0.642,0.865zm0.235,1.264a1.7,1.7 0 0 1 -2.088,0.151c-0.039,0.025 -0.078,0.051 -0.115,0.072a13.708,13.708 0 0 1 -3.864,1.698l0,4.824a9.373,9.373 0 0 0 8.64,-5.744a14.047,14.047 0 0 1 -2.573,-1.001z"/>
  <path id="svg_6" fill="#fec82f" class="st3" d="m16.31623,20.35a11.71,11.71 0 0 1 -2.385,0.367l-0.128,0.008c-0.151,0.41 -0.454,0.744 -0.839,0.94c0.245,0.909 0.688,1.698 1.319,2.327c0.524,0.524 1.162,0.92 1.891,1.18l0.142,0.002l0,-4.824z"/>
  <path id="svg_7" fill="#df9c26" class="st4" d="m19.54223,17.165c0,-0.172 0.026,-0.34 0.074,-0.498a17.925,17.925 0 0 1 -3.3,-3.376l0,5.946a12.866,12.866 0 0 0 3.321,-1.511a1.698,1.698 0 0 1 -0.095,-0.561z"/>
  <path id="svg_8" fill="#fec82f" class="st3" d="m16.31623,13.291c-0.045,-0.059 -0.091,-0.113 -0.132,-0.174a1.716,1.716 0 0 1 -1.015,-0.08c-1.134,1.606 -1.912,3.341 -2.25,5.049c-0.032,0.162 -0.059,0.32 -0.083,0.475c0.477,0.195 0.848,0.596 0.996,1.092c0.016,-0.004 0.029,-0.004 0.046,-0.004c0.809,-0.039 1.627,-0.18 2.438,-0.412l0,-5.946z"/>
  <path id="svg_9" fill="#df9c26" class="st4" d="m16.31623,6.44l0,3.394c0.048,0.016 0.098,0.033 0.145,0.055a17.238,17.238 0 0 1 3.573,-2.681a9.3,9.3 0 0 0 -3.718,-0.768z"/>
  <path id="svg_10" fill="#fec82f" class="st3" d="m16.31623,6.44c-0.608,0 -1.201,0.055 -1.773,0.168c0.025,0.197 0.06,0.404 0.101,0.606c0.168,0.86 0.449,1.725 0.829,2.575a1.694,1.694 0 0 1 0.843,0.045l0,-3.394z"/>
 </g>
</svg>