<svg width="128" height="128" xmlns="http://www.w3.org/2000/svg">
 <g>
  <title>Layer 1</title>
  <g stroke="null" id="svg_12">
   <path stroke="null" d="m0,53.76285l14.61526,0l0,14.61526l-14.61526,0l0,-14.61526z" fill="#624aff" id="svg_1"/>
   <path stroke="null" d="m56.48954,68.3781l14.61526,0l0,14.61526l-14.61526,0l0,-14.61526z" fill="#624aff" id="svg_2"/>
   <path stroke="null" d="m100.33531,82.99336l-14.61526,0l0,12.64377l27.25902,0l0,-27.25902l-12.64377,0l0,14.61526z" fill="#624aff" id="svg_3"/>
   <path stroke="null" d="m71.1048,53.76285l14.61526,0l0,14.61526l-14.61526,0l0,-14.61526z" fill="#36cfd1" id="svg_4"/>
   <path stroke="null" d="m0,39.14759l14.61526,0l0,14.61526l-14.61526,0l0,-14.61526z" fill="#36cfd1" id="svg_5"/>
   <path stroke="null" d="m112.97908,53.76285l14.61526,0l0,14.61526l-14.61526,0l0,-14.61526z" fill="#624aff" id="svg_6"/>
   <path stroke="null" d="m112.97908,39.14759l14.61526,0l0,14.61526l-14.61526,0l0,-14.61526z" fill="#36cfd1" id="svg_7"/>
   <path stroke="null" d="m85.72005,26.50382l0,12.64377l14.61526,0l0,14.61526l12.64377,0l0,-27.25902l-27.25902,0z" fill="#624aff" id="svg_8"/>
   <path stroke="null" d="m41.87428,53.76285l14.61526,0l0,14.61526l-14.61526,0l0,-14.61526z" fill="#36cfd1" id="svg_9"/>
   <path stroke="null" d="m27.25902,39.14759l14.61526,0l0,-12.64377l-27.25902,0l0,27.25902l12.64377,0l0,-14.61526z" fill="#624aff" id="svg_10"/>
   <path stroke="null" d="m27.25902,68.3781l-12.64377,0l0,27.25902l27.25902,0l0,-12.64377l-14.61526,0l0,-14.61526z" fill="#624aff" id="svg_11"/>
  </g>
 </g>

</svg>