<svg width="249" height="249" xmlns="http://www.w3.org/2000/svg" xml:space="preserve" version="1.1">

 <g>
  <title>Layer 1</title>
  <g stroke="null" id="svg_1">
   <g stroke="null" id="svg_2">
    <path stroke="null" id="svg_3" fill="#067BEF" d="m207.54745,249.2l-166.20935,0c-22.87376,0 -41.35257,-18.5 -41.35257,-41.4l0,-166.4c0,-22.9 18.4788,-41.4 41.35257,-41.4l166.20935,0c22.87376,0 41.35257,18.5 41.35257,41.4l0,166.4c0,22.9 -18.4788,41.4 -41.35257,41.4z" class="st0"/>
    <g stroke="null" id="svg_4">
     <path stroke="null" id="svg_5" fill="#FFFFFF" d="m134.63109,123.3c0,42.3 -25.67055,66.5 -60.43068,66.5c-35.55921,0 -58.03343,-27.2 -58.03343,-64.3c0,-38.8 24.37204,-66.1 59.83137,-66.1c36.95761,0.1 58.63275,28 58.63275,63.9zm-94.09207,1.9c0,25.7 12.88522,46.1 34.9599,46.1c22.27445,0 34.76013,-20.6 34.76013,-47c0,-23.8 -11.78648,-46.3 -34.76013,-46.3c-22.77388,0 -34.9599,21.2 -34.9599,47.2z" class="st1"/>
     <path stroke="null" id="svg_6" fill="#FFFFFF" d="m150.21321,123.7c0,-10.5 -0.19977,-19.3 -0.6992,-27.2l20.17686,0l1.09874,13.7l0.59931,0c3.89553,-7.1 13.88407,-15.7 28.96677,-15.7c15.88178,0 32.36288,10.3 32.36288,39.2l0,54.1l-22.97365,0l0,-51.5c0,-13.1 -4.89439,-23 -17.38006,-23c-9.18946,0 -15.48224,6.6 -17.97938,13.5c-0.6992,2.1 -0.89897,4.9 -0.89897,7.5l0,53.6l-23.17342,0l-0.09989,-64.2l0,0z" class="st1"/>
    </g>
   </g>
   <g stroke="null" id="svg_7">
    <path stroke="null" id="svg_8" d="m-622.9,62.1c8.29049,-1.5 19.77731,-2.6 35.45933,-2.6c16.98052,0 29.4662,3.6 37.55692,10.4c7.59129,6.2 12.48568,16.3 12.48568,28.2c0,12.1 -3.79565,22.1 -10.9874,28.9c-9.28934,9.3 -23.77273,13.6 -40.15394,13.6c-4.29507,0 -8.29049,-0.2 -11.28705,-0.8l0,48l-23.07353,0l0,-125.7zm23.07353,59.3c2.79679,0.8 6.59244,0.9 11.28705,0.9c17.38006,0 27.96792,-8.5 27.96792,-23.4c0,-14.2 -9.78877,-21.7 -25.87033,-21.7c-6.39267,0 -10.9874,0.6 -13.38465,1.1l0,43.1l0,0z"/>
    <path stroke="null" id="svg_9" d="m-520.61732,125.4c0,-12.5 -0.19977,-21.4 -0.79908,-29.7l20.17686,0l0.79908,17.6l0.79908,0c4.49484,-13 15.28247,-19.7 25.07124,-19.7c2.29736,0 3.59588,0.2 5.4937,0.6l0,21.9c-1.89782,-0.4 -3.99542,-0.8 -6.79221,-0.8c-11.08728,0 -18.67858,7.2 -20.77617,17.6c-0.39954,2.1 -0.79908,4.5 -0.79908,7.2l0,47.6l-23.17342,0l0,-62.3z"/>
    <path stroke="null" id="svg_10" d="m-367.69273,140.9c0,33.8 -23.77273,48.9 -47.14592,48.9c-26.0701,0 -46.04718,-18 -46.04718,-47.4c0,-30.2 19.77731,-48.8 47.54546,-48.8c27.26872,0.1 45.64764,19.3 45.64764,47.3zm-69.32049,0.9c0,17.8 8.69003,31.2 22.87376,31.2c13.18488,0 22.47422,-13 22.47422,-31.6c0,-14.4 -6.39267,-30.8 -22.27445,-30.8c-16.4811,0.1 -23.07353,15.9 -23.07353,31.2z"/>
    <path stroke="null" id="svg_11" d="m-281.09207,184.9c-4.89439,2.3 -14.48339,4.7 -26.0701,4.7c-28.66712,0 -47.34569,-18.3 -47.34569,-46.9c0,-27.6 18.87835,-49.1 51.14134,-49.1c8.49026,0 17.18029,1.9 22.47422,4.3l-4.19519,17.4c-3.79565,-1.7 -9.28934,-3.6 -17.57984,-3.6c-17.77961,0 -28.26758,13 -28.16769,29.9c0,18.9 12.28591,29.7 28.16769,29.7c8.09072,0 13.78419,-1.7 18.27903,-3.6l3.29622,17.2z"/>
    <path stroke="null" id="svg_12" d="m-249.22861,148.3c0.59931,16.6 13.58442,23.8 28.26758,23.8c10.78763,0 18.4788,-1.5 25.47078,-4.2l3.3961,16.1c-7.89095,3.2 -18.87835,5.7 -32.06322,5.7c-29.86574,0 -47.34569,-18.3 -47.34569,-46.5c0,-25.5 15.48224,-49.5 44.94844,-49.5c29.86574,0 39.65451,24.6 39.65451,44.8c0,4.3 -0.39954,7.7 -0.79908,9.8l-61.52942,0zm40.4536,-16.3c0.19977,-8.5 -3.59588,-22.5 -19.07812,-22.5c-14.3835,0 -20.37663,13 -21.37548,22.5l40.4536,0z"/>
    <path stroke="null" id="svg_13" d="m-169.42016,166.4c5.29393,3.2 15.28247,6.6 23.57296,6.6c10.18831,0 14.68316,-4.2 14.68316,-10.2c0,-6.2 -3.79565,-9.4 -15.0827,-13.4c-17.97938,-6.2 -25.47078,-16.1 -25.27101,-26.8c0,-16.2 13.38465,-28.9 34.76013,-28.9c10.18831,0 19.07812,2.6 24.37204,5.5l-4.49484,16.4c-3.99542,-2.3 -11.28705,-5.3 -19.47766,-5.3c-8.29049,0 -12.78533,4 -12.78533,9.6c0,5.9 4.29507,8.7 16.08155,12.8c16.58098,6 24.37204,14.5 24.57182,28.2c0,16.6 -12.98511,28.7 -37.35715,28.7c-11.08728,0 -21.17571,-2.6 -27.96792,-6.4l4.39496,-16.8z"/>
    <path stroke="null" id="svg_14" d="m-90.71044,166.4c5.29393,3.2 15.28247,6.6 23.57296,6.6c10.18831,0 14.68316,-4.2 14.68316,-10.2c0,-6.2 -3.79565,-9.4 -15.0827,-13.4c-17.97938,-6.2 -25.47078,-16.1 -25.27101,-26.8c0,-16.2 13.38465,-28.9 34.76013,-28.9c10.18831,0 19.07812,2.6 24.37204,5.5l-4.49484,16.4c-3.99542,-2.3 -11.28705,-5.3 -19.47766,-5.3c-8.29049,0 -12.78533,4 -12.78533,9.6c0,5.9 4.29507,8.7 16.08155,12.8c16.58098,6 24.37204,14.5 24.57182,28.2c0,16.6 -12.98511,28.7 -37.35715,28.7c-11.08728,0 -21.17571,-2.6 -27.96792,-6.4l4.39496,-16.8z"/>
   </g>
  </g>
 </g>
</svg>