<svg width="46" height="46" xmlns="http://www.w3.org/2000/svg">
 <defs>
  <linearGradient id="SVGID_1_" x1="0.26936" y1="0.49871" x2="0.72902" y2="0.49871">
   <stop offset="0" stop-color="#1b559e"/>
   <stop offset="1" stop-color="#3f7ec3"/>
  </linearGradient>
  <linearGradient id="SVGID_2_" x1="0.28701" y1="0.49992" x2="0.7296" y2="0.49992">
   <stop offset="0" stop-color="#60a3e5"/>
   <stop offset="1" stop-color="#3f7ec3"/>
  </linearGradient>
 </defs>
 <g>
  <title>Layer 1</title>
  <path class="st0" d="m36.86364,24.9l-4,0c-1.2,0 -2.3,-0.6 -2.3,-1.8c0,0 -0.7,-14.2 -0.7,-22.8l0,-0.3l9.3,0l0,23.1c0,1.3 -1.1,1.8 -2.3,1.8z" fill-rule="evenodd" clip-rule="evenodd" fill="#60a3e5" id="svg_1"/>
  <path class="st1" d="m30.56364,23.1c0,4.3 -3.5,7.7 -7.8,7.7s-7.8,-3.8 -7.8,-7.8l-8.6,0c0,8 7.3,16.4 16.4,16.4c9,0 16.3,-7.3 16.4,-16.3l0,-0.2l-8.6,-0.6l0,0.8z" fill-rule="evenodd" clip-rule="evenodd" fill="url(#SVGID_1_)" id="svg_2"/>
  <path class="st2" d="m22.76364,6.7c-9.1,0 -16.4,7.3 -16.4,16.3l0,23l9,0s0,0.1 0,0c0,-8.6 -0.5,-22.9 -0.5,-22.9l0.1,-0.1c0,-4 3.5,-7.7 7.8,-7.7s7.8,3.7 7.8,7.7l8.6,0c-0.1,-9 -7.4,-16.3 -16.4,-16.3z" fill-rule="evenodd" clip-rule="evenodd" fill="url(#SVGID_2_)" id="svg_3"/>
  <path class="st3" d="m69.06364,10.5l-9.3,0l0,26.1l3.7,0l0,-9.6l5.7,0c4.8,0 8.2,-3.3 8.2,-8.3s-3.5,-8.2 -8.3,-8.2zm-0.5,13.3l-5.1,0l0,-10.1l5.1,0c3.1,0 5,1.9 5,5s-1.9,5.1 -5,5.1zm15.1,-1.2c-0.1,0 0,-0.6 0,-1.4l0,-3.4l-3.5,0l0,18.7l3.6,0l0,-7.8c0,-3.6 1.7,-7.6 5.7,-7.6c0.4,0 0.9,0 1,0.1l0,-3.5c-0.3,0 -0.6,-0.1 -1,-0.1c-2.8,0.1 -5,2.3 -5.8,5zm17.8,-5.2c-5.5,0 -10,4.1 -10,9.8c0,5.7 4.5,9.8 10.1,9.8c5.5,0 10,-4.1 10,-9.8c0,-5.7 -4.5,-9.8 -10.1,-9.8zm0.1,16.5c-3.5,0 -6.4,-2.8 -6.4,-6.7c0,-3.9 2.9,-6.7 6.4,-6.7c3.5,0 6.4,2.8 6.4,6.7c0,3.9 -2.9,6.7 -6.4,6.7zm27.1,-16l-4.1,0l-3.5,5.7c-0.3,0.5 -0.6,1.1 -0.6,1.1l-0.1,0s-0.3,-0.6 -0.6,-1.1l-3.5,-5.7l-4.1,0l6,9.1l-6.4,9.6l4.1,0l3.9,-6.2c0.3,-0.4 0.6,-1 0.6,-1l0.1,0s0.3,0.6 0.6,1l3.9,6.2l4.1,0l-6.4,-9.6l6,-9.1zm3.2,-3.8l3.7,0l0,-3.6l-3.7,0l0,3.6zm0.1,22.5l3.6,0l0,-18.7l-3.6,0l0,18.7zm9.4,-19.3l0,0.8l-2.3,0l0,2.9l2.3,0l0,15.6l3.6,0l0,-15.6l4.4,0l0,-2.9l-4.4,0l0,-0.8c0,-3.4 2.5,-3.8 3.9,-3.8c0.4,0 0.8,0 0.9,0.1l0,-3.1c-0.5,-0.1 -0.9,-0.1 -1.4,-0.1c-2.3,-0.1 -7,0.7 -7,6.9zm11.4,-3.2l3.7,0l0,-3.6l-3.7,0l0,3.6zm0,22.5l3.6,0l0,-18.7l-3.6,0l0,18.7zm16.2,-19.2c-5.3,0 -9.4,3.8 -9.4,9.8c0,5.5 4.1,9.8 9.9,9.8c2.6,0 5.4,-1 7.2,-2.7l-1.5,-2.6c-1.5,1.3 -3.5,2.2 -5.5,2.2c-3.4,0 -6.2,-2.2 -6.4,-6.2l13.6,0c0.1,-0.5 0.1,-1 0.1,-1.5c0.1,-4.8 -2.7,-8.8 -8,-8.8zm-5.5,7.7c0.5,-3.1 2.7,-4.9 5.5,-4.9c2.4,0 4.4,1.7 4.5,4.9l-10,0zm26.6,-7.4c-2.9,0 -5.1,2.3 -5.9,5l-0.1,0s0.1,-0.6 0.1,-1.4l0,-3.4l-3.5,0l0,18.7l3.6,0l0,-7.8c0,-3.6 1.7,-7.6 5.7,-7.6c0.4,0 0.9,0 1,0.1l0,-3.5c-0.3,-0.1 -0.6,-0.1 -0.9,-0.1z" fill="#304051" id="svg_4"/>
 </g>
</svg>