<svg width="44" height="44" xmlns="http://www.w3.org/2000/svg" class="transition ease-in-out group-active:scale-[0.98]" fill="none">

 <g>
  <title>Layer 1</title>
  <path id="svg_1" class="group-hover:fill-typo-secondary transition ease-in-out" fill="#54616C" d="m0.47474,20.2646l20.27366,10.6002c0.1256,0.0662 0.2654,0.1008 0.4073,0.1008c0.1419,0 0.2817,-0.0346 0.4073,-0.1008l20.274,-10.6002c0.143,-0.0745 0.2627,-0.1868 0.3463,-0.3248c0.0836,-0.138 0.1278,-0.2963 0.1278,-0.4577c0,-0.1615 -0.0442,-0.3198 -0.1278,-0.4578c-0.0836,-0.138 -0.2033,-0.2503 -0.3463,-0.3248l-20.274,-10.6002c-0.1262,-0.0652 -0.2662,-0.0993 -0.4082,-0.0993c-0.142,0 -0.282,0.0341 -0.4082,0.0993l-20.27361,10.6002c-0.1427,0.0747 -0.26222,0.1873 -0.34556,0.3253c-0.08334,0.1381 -0.1273,0.2964 -0.12712,0.4578c0.00018,0.1614 0.0445,0.3196 0.12815,0.4575c0.08365,0.1378 0.20341,0.2501 0.34628,0.3245l0,0z"/>
  <path id="svg_2" class="group-hover:fill-typo-secondary transition ease-in-out" fill="#BAC0C4" d="m41.8368,25.7346l-3.355,-1.7537l-16.1044,8.4192c-0.3763,0.1967 -0.7943,0.2997 -1.2187,0.3003c-0.4244,0.0006 -0.8427,-0.1012 -1.2195,-0.2968l-16.11019,-8.4234l-3.35452,1.7537c-0.14302,0.0745 -0.2629,0.1868 -0.34657,0.3249c-0.08367,0.138 -0.12792,0.2964 -0.12792,0.4579c0,0.1615 0.04425,0.3199 0.12792,0.458c0.08367,0.138 0.20355,0.2504 0.34657,0.3248l20.27361,10.5997c0.1256,0.0662 0.2654,0.1008 0.4073,0.1008c0.1419,0 0.2817,-0.0346 0.4073,-0.1008l20.2741,-10.5997c0.1429,-0.0746 0.2626,-0.187 0.3462,-0.325c0.0836,-0.138 0.1278,-0.2964 0.1278,-0.4578c0,-0.1614 -0.0442,-0.3198 -0.1278,-0.4578c-0.0836,-0.138 -0.2033,-0.2504 -0.3462,-0.325l0,0.0007z"/>
  <path id="svg_3" fill="#54616C" d="m66.9424,15.4234c0.0788,0.087 0.1394,0.1891 0.178,0.3001c0.0387,0.1109 0.0546,0.2286 0.0468,0.3459l0,2.3894c0,0.5061 -0.2809,0.7872 -0.8428,0.8435c-0.6197,0.0423 -1.2277,0.1895 -1.7983,0.4354c-0.6203,0.2675 -1.1761,0.6651 -1.6299,1.1662c-0.6741,0.7307 -1.0112,1.7985 -1.0115,3.2035l0,5.9857c0.0097,0.1134 -0.0054,0.2275 -0.0443,0.3343c-0.0389,0.1069 -0.1008,0.2039 -0.1811,0.2842c-0.0804,0.0804 -0.1773,0.1421 -0.284,0.1809c-0.1067,0.0388 -0.2206,0.0538 -0.3337,0.0437l-2.5007,0c-0.1131,0.0101 -0.227,-0.0049 -0.3337,-0.0437c-0.1067,-0.0388 -0.2036,-0.1005 -0.284,-0.1809c-0.0803,-0.0803 -0.1421,-0.1773 -0.1811,-0.2842c-0.0389,-0.1068 -0.054,-0.2209 -0.0443,-0.3343l0,-13.7707c-0.0097,-0.1134 0.0054,-0.2275 0.0443,-0.3343c0.039,-0.1069 0.1008,-0.2039 0.1811,-0.2842c0.0804,-0.0804 0.1773,-0.1421 0.284,-0.1809c0.1067,-0.0388 0.2206,-0.0537 0.3337,-0.0437l2.5009,0c0.1131,-0.01 0.227,0.0049 0.3337,0.0437c0.1067,0.0388 0.2037,0.1005 0.284,0.1809c0.0804,0.0803 0.1422,0.1773 0.1811,0.2842c0.0389,0.1068 0.0541,0.2209 0.0443,0.3343l0,1.2085c0.5246,-0.6964 1.2091,-1.2556 1.9954,-1.6301c0.768,-0.3694 1.5959,-0.5978 2.4443,-0.6745c0.1111,-0.015 0.2242,-0.0052 0.331,0.0289c0.1068,0.0341 0.2048,0.0915 0.2868,0.1682l0,0z"/>
  <path id="svg_4" fill="#54616C" d="m73.0253,30.5283c-1.2624,-0.5501 -2.3576,-1.4243 -3.1749,-2.5343c-0.9187,-1.2013 -1.3777,-2.7782 -1.3768,-4.7308c-0.0299,-1.4841 0.3545,-2.9469 1.1099,-4.2238c0.7249,-1.2064 1.771,-2.1865 3.0209,-2.8302c1.3208,-0.6775 2.7871,-1.0207 4.2707,-0.9996c1.3513,-0.0079 2.6851,0.3058 3.8917,0.9154c1.2004,0.6035 2.2223,1.5113 2.9641,2.6332c0.4667,0.6615 0.801,1.4074 0.9843,2.1965c0.1606,0.8252 0.236,1.6648 0.2251,2.5056c0.0127,0.3545 -0.0963,0.7027 -0.3088,0.9864c-0.1035,0.1304 -0.2364,0.2343 -0.3879,0.3029c-0.1515,0.0686 -0.3171,0.1001 -0.4832,0.0917l-11.0993,0c0.079,0.4507 0.2591,0.8776 0.5269,1.2483c0.2677,0.3707 0.616,0.6756 1.0186,0.8916c0.8178,0.4489 1.7363,0.6815 2.6687,0.6758c0.6716,0.0172 1.34,-0.0977 1.9674,-0.3382c0.5424,-0.2247 1.0379,-0.5494 1.4608,-0.9571c0.1813,-0.1795 0.42,-0.2891 0.674,-0.3097c0.1817,0.0043 0.358,0.063 0.506,0.1688l1.8263,1.0702c0.2998,0.1687 0.4498,0.3752 0.45,0.6192c-0.0186,0.1972 -0.0971,0.384 -0.2249,0.5351c-1.7236,1.9334 -3.9435,2.9001 -6.6598,2.8999c-1.3258,-0.0031 -2.6365,-0.2813 -3.8498,-0.8169l0,0zm0.998,-10.7852c-0.3455,0.2436 -0.6355,0.5577 -0.851,0.9217c-0.2156,0.364 -0.3517,0.7696 -0.3994,1.1902l7.7271,0c-0.0608,-0.5192 -0.2543,-1.0139 -0.562,-1.4361c-0.3298,-0.4602 -0.7629,-0.8364 -1.2644,-1.0982c-0.5642,-0.291 -1.1919,-0.4361 -1.8263,-0.4224c-1.1422,0.0004 -2.0835,0.2822 -2.824,0.8452l0,-0.0004z"/>
  <path id="svg_5" fill="#54616C" d="m111.34,16.9131c1.077,1.1428 1.616,2.7727 1.616,4.8897l0,8.2897c0.009,0.1133 -0.006,0.2274 -0.045,0.3342c-0.039,0.1068 -0.1,0.2038 -0.181,0.2842c-0.08,0.0803 -0.177,0.1421 -0.284,0.1809c-0.106,0.0388 -0.22,0.0538 -0.333,0.0438l-2.557,0c-0.113,0.01 -0.227,-0.0049 -0.334,-0.0437c-0.107,-0.0388 -0.204,-0.1006 -0.284,-0.1809c-0.08,-0.0804 -0.142,-0.1774 -0.181,-0.2842c-0.039,-0.1069 -0.054,-0.221 -0.044,-0.3343l0,-8.2899c0,-1.068 -0.267,-1.8549 -0.801,-2.3607c-0.534,-0.5057 -1.269,-0.7587 -2.206,-0.7589c-0.392,-0.0068 -0.781,0.0713 -1.139,0.229c-0.359,0.1576 -0.68,0.3911 -0.941,0.6845c-0.562,0.6088 -0.852,1.5222 -0.871,2.7401l0,7.7559c0.01,0.1133 -0.005,0.2275 -0.044,0.3343c-0.039,0.1069 -0.101,0.2039 -0.181,0.2843c-0.08,0.0803 -0.177,0.1421 -0.284,0.1809c-0.107,0.0387 -0.221,0.0536 -0.334,0.0436l-2.5564,0c-0.1131,0.0101 -0.227,-0.0048 -0.3337,-0.0436c-0.1067,-0.0387 -0.2037,-0.1005 -0.284,-0.1808c-0.0804,-0.0804 -0.1422,-0.1775 -0.1811,-0.2844c-0.0389,-0.1068 -0.0539,-0.221 -0.044,-0.3343l0,-8.2899c0,-1.068 -0.2625,-1.8549 -0.7875,-2.3607c-0.525,-0.5057 -1.2556,-0.7587 -2.1919,-0.7589c-0.4081,-0.012 -0.8136,0.0691 -1.186,0.237c-0.3723,0.168 -0.7017,0.4185 -0.9634,0.7326c-0.5528,0.6465 -0.8292,1.6816 -0.829,3.1051l-0.028,7.3348c0,0.562 -0.2812,0.8431 -0.8435,0.8431l-2.5003,0c-0.1131,0.01 -0.227,-0.0048 -0.3337,-0.0436c-0.1067,-0.0388 -0.2037,-0.1006 -0.284,-0.1809c-0.0804,-0.0804 -0.1422,-0.1774 -0.1811,-0.2843c-0.0389,-0.1069 -0.0539,-0.221 -0.0441,-0.3343l0,-13.7699c-0.0098,-0.1134 0.0052,-0.2275 0.0441,-0.3343c0.0389,-0.1069 0.1007,-0.2039 0.1811,-0.2843c0.0803,-0.0804 0.1773,-0.1421 0.284,-0.1809c0.1067,-0.0388 0.2206,-0.0537 0.3337,-0.0436l2.5003,0c0.1131,-0.0101 0.227,0.0048 0.3337,0.0436c0.1068,0.0388 0.2038,0.1005 0.2841,0.1809c0.0804,0.0803 0.1423,0.1774 0.1813,0.2842c0.0389,0.1069 0.0541,0.221 0.0444,0.3344l0,0.562c0.5827,-0.5112 1.2477,-0.9199 1.9667,-1.2085c0.6646,-0.2956 1.3806,-0.4579 2.1075,-0.4776c2.1729,0 3.8308,0.7025 4.9738,2.1075c0.59,-0.6816 1.331,-1.2156 2.163,-1.5597c0.89,-0.3711 1.846,-0.5575 2.81,-0.548c2.117,0.0007 3.715,0.5723 4.792,1.7148z"/>
  <path id="svg_6" fill="#54616C" d="m120.725,30.233c-1.256,-0.6965 -2.307,-1.7111 -3.049,-2.9425c-0.735,-1.219 -1.124,-2.6163 -1.124,-4.0408c0,-1.4244 0.389,-2.8217 1.124,-4.0408c0.746,-1.236 1.802,-2.2552 3.062,-2.9565c1.93,-1.0734 4.197,-1.3651 6.334,-0.8152c2.138,0.5499 3.984,1.8996 5.159,3.7717c0.738,1.2137 1.127,2.6078 1.124,4.0288c-0.002,1.4211 -0.396,2.8138 -1.138,4.0248c-1.173,1.8748 -3.018,3.2278 -5.156,3.7804c-2.138,0.5526 -4.406,0.2629 -6.337,-0.8097l0.001,-0.0002zm2.065,-10.7851c-0.645,0.3737 -1.178,0.9132 -1.545,1.5627c-0.367,0.691 -0.56,1.4612 -0.562,2.2439c-0.003,0.7826 0.185,1.554 0.548,2.2473c0.353,0.655 0.884,1.1968 1.531,1.5627c0.484,0.2931 1.022,0.4851 1.582,0.5643c0.56,0.0793 1.13,0.0442 1.676,-0.1031c0.546,-0.1473 1.057,-0.4038 1.501,-0.754c0.445,-0.3502 0.814,-0.787 1.086,-1.2839c0.373,-0.6915 0.567,-1.4663 0.562,-2.2526c0.008,-0.7717 -0.18,-1.5327 -0.548,-2.2106c-0.358,-0.6587 -0.887,-1.2083 -1.531,-1.5908c-0.659,-0.3763 -1.406,-0.5708 -2.164,-0.5636c-0.751,-0.0043 -1.489,0.1955 -2.136,0.5781l0,-0.0004z"/>
  <path id="svg_7" fill="#54616C" d="m142.496,30.9787c-0.225,0 -0.422,-0.1596 -0.591,-0.4789l-7.193,-13.9661c-0.07,-0.1302 -0.108,-0.2748 -0.112,-0.4224c0,-0.3946 0.243,-0.5919 0.73,-0.5919l2.839,0c0.212,-0.0156 0.423,0.0358 0.605,0.1468c0.181,0.1111 0.323,0.2763 0.406,0.4725l3.287,6.9553l3.288,-6.9553c0.083,-0.1963 0.225,-0.3615 0.407,-0.4726c0.181,-0.1111 0.393,-0.1624 0.605,-0.1467l2.865,0c0.487,0 0.73,0.1973 0.731,0.5919c-0.005,0.1476 -0.043,0.2923 -0.113,0.4224l-7.193,13.9661c-0.149,0.3197 -0.336,0.4794 -0.561,0.4789z"/>
  <path id="svg_8" fill="#54616C" d="m156.159,30.5283c-1.262,-0.5502 -2.357,-1.4244 -3.174,-2.5343c-0.919,-1.2013 -1.378,-2.7782 -1.377,-4.7308c-0.03,-1.484 0.354,-2.9469 1.11,-4.2237c0.725,-1.2065 1.771,-2.1866 3.021,-2.8303c1.32,-0.6775 2.787,-1.0207 4.27,-0.9996c1.352,-0.0078 2.685,0.3059 3.892,0.9154c1.201,0.603 2.224,1.5108 2.966,2.6332c0.466,0.6616 0.801,1.4075 0.984,2.1965c0.161,0.8253 0.236,1.6649 0.225,2.5056c0.013,0.3545 -0.096,0.7027 -0.309,0.9864c-0.103,0.1305 -0.237,0.2343 -0.388,0.303c-0.152,0.0686 -0.318,0.1 -0.484,0.0916l-11.1,0c0.078,0.4507 0.259,0.8775 0.526,1.2482c0.268,0.3707 0.616,0.6757 1.019,0.8917c0.818,0.4488 1.736,0.6814 2.669,0.6758c0.671,0.0171 1.339,-0.0978 1.967,-0.3382c0.542,-0.2246 1.038,-0.5492 1.461,-0.9571c0.181,-0.1795 0.42,-0.2892 0.674,-0.3097c0.182,0.0043 0.358,0.0631 0.506,0.1688l1.827,1.0702c0.125,0.0512 0.233,0.1363 0.312,0.2457c0.079,0.1093 0.127,0.2387 0.137,0.3735c-0.018,0.1967 -0.096,0.3832 -0.223,0.5342c-1.724,1.9335 -3.944,2.9001 -6.66,2.9c-1.326,-0.0028 -2.637,-0.2807 -3.851,-0.8161l0,0zm0.998,-10.7852c-0.345,0.2436 -0.635,0.5577 -0.851,0.9217c-0.215,0.364 -0.352,0.7696 -0.399,1.1902l7.727,0c-0.061,-0.5192 -0.254,-1.0139 -0.562,-1.4361c-0.33,-0.4602 -0.763,-0.8364 -1.264,-1.0982c-0.564,-0.291 -1.192,-0.4362 -1.826,-0.4224c-1.144,0.0004 -2.085,0.2822 -2.825,0.8452l0,-0.0004z"/>
  <path id="svg_9" fill="#BAC0C4" d="m178.022,30.7558c-0.171,0.1486 -0.393,0.2245 -0.618,0.2115l-2.474,0c-0.113,0.01 -0.227,-0.005 -0.334,-0.0439c-0.106,-0.0389 -0.203,-0.1008 -0.284,-0.1814c-0.08,-0.0805 -0.142,-0.1777 -0.181,-0.2847c-0.039,-0.1071 -0.054,-0.2213 -0.044,-0.3348l0,-19.5974c-0.01,-0.1135 0.005,-0.2278 0.044,-0.3348c0.039,-0.1071 0.101,-0.2043 0.181,-0.2848c0.08,-0.0806 0.177,-0.1424 0.284,-0.1813c0.107,-0.0389 0.221,-0.0538 0.334,-0.0437l2.472,0c0.114,-0.0101 0.228,0.0048 0.334,0.0437c0.107,0.0389 0.204,0.1007 0.285,0.1813c0.08,0.0805 0.142,0.1777 0.181,0.2848c0.038,0.1071 0.053,0.2214 0.043,0.3348l0,6.561c0.507,-0.6248 1.165,-1.1096 1.911,-1.4085c0.881,-0.3674 1.828,-0.5494 2.782,-0.5346c1.438,-0.0305 2.857,0.3346 4.102,1.0557c1.168,0.6908 2.114,1.7026 2.726,2.9155c0.627,1.2784 0.945,2.687 0.927,4.1115c0.022,1.4246 -0.296,2.8338 -0.927,4.1104c-0.599,1.1998 -1.524,2.2054 -2.669,2.9008c-1.263,0.7304 -2.701,1.1005 -4.159,1.0702c-0.965,0.0055 -1.921,-0.1863 -2.809,-0.5636c-0.882,-0.3748 -1.509,-0.8159 -1.883,-1.3231l0,0.7578c0.005,0.1066 -0.012,0.2133 -0.05,0.3129c-0.039,0.0996 -0.098,0.1898 -0.174,0.2647zm1.194,-4.336c0.758,0.7789 1.793,1.1683 3.105,1.168c1.255,0 2.276,-0.4082 3.062,-1.2245c0.787,-0.8164 1.18,-1.8629 1.181,-3.1396c0,-1.3141 -0.384,-2.3747 -1.152,-3.182c-0.767,-0.8073 -1.798,-1.2109 -3.091,-1.2109c-1.274,0 -2.299,0.4036 -3.076,1.2109c-0.777,0.8073 -1.166,1.8679 -1.167,3.182c0,1.3514 0.379,2.4168 1.138,3.1961l0,0z"/>
  <path id="svg_10" fill="#BAC0C4" d="m209.773,15.6737c0.078,0.0826 0.138,0.18 0.176,0.2865c0.039,0.1064 0.056,0.2196 0.05,0.3328l0,13.2622c0,2.2528 -0.689,4.0173 -2.066,5.2935c-1.377,1.2762 -3.292,1.9146 -5.746,1.915c-2.623,0 -4.861,-0.6195 -6.715,-1.8585c-0.115,-0.0592 -0.211,-0.1477 -0.28,-0.2564c-0.07,-0.1088 -0.109,-0.234 -0.114,-0.3628c0.009,-0.1945 0.078,-0.3813 0.197,-0.5351l1.096,-1.6053c0.067,-0.1144 0.161,-0.2104 0.274,-0.2793c0.112,-0.0689 0.241,-0.1085 0.373,-0.1153c0.19,0.0066 0.374,0.0649 0.533,0.1688c0.624,0.4058 1.307,0.7143 2.023,0.915c0.749,0.216 1.525,0.3251 2.304,0.3242c2.642,0 3.962,-1.2015 3.963,-3.6045l0,-0.2523c-1.106,0.9207 -2.548,1.3807 -4.328,1.38c-1.486,0.0302 -2.956,-0.3187 -4.271,-1.0141c-1.204,-0.6443 -2.199,-1.6216 -2.865,-2.8158c-0.656,-1.1991 -0.995,-2.5463 -0.985,-3.9135c-0.021,-1.3777 0.318,-2.7369 0.985,-3.9421c0.667,-1.1761 1.65,-2.1417 2.836,-2.7879c1.199,-0.6943 2.632,-1.0417 4.299,-1.0421c1.78,0 3.222,0.46 4.328,1.3799l0,-0.2534c-0.01,-0.1134 0.005,-0.2277 0.044,-0.3347c0.038,-0.1071 0.1,-0.2043 0.18,-0.2848c0.081,-0.0806 0.178,-0.1425 0.285,-0.1814c0.106,-0.0389 0.221,-0.0539 0.334,-0.0439l2.472,0c0.113,-0.0064 0.226,0.0102 0.332,0.049c0.106,0.0387 0.204,0.0987 0.286,0.1763l0,0zm-5.858,10.9114c0.641,-0.3611 1.171,-0.8919 1.531,-1.5344c0.371,-0.6416 0.565,-1.3703 0.562,-2.1115c0.01,-0.7494 -0.179,-1.4881 -0.547,-2.1403c-0.364,-0.6364 -0.893,-1.1618 -1.531,-1.5203c-0.663,-0.3631 -1.409,-0.5475 -2.164,-0.5351c-1.255,0 -2.276,0.3942 -3.063,1.1825c-0.391,0.3951 -0.698,0.8662 -0.9,1.3844c-0.203,0.5182 -0.298,1.0725 -0.28,1.6288c0,1.258 0.384,2.2718 1.153,3.0413c0.768,0.7696 1.798,1.1544 3.09,1.1544c0.752,0.0084 1.493,-0.1812 2.149,-0.5498z"/>
 </g>
</svg>