<?xml version="1.0" encoding="UTF-8" standalone="no"?>
<svg xmlns="http://www.w3.org/2000/svg" viewBox="0 0 59.16 69.57">
   <g transform="translate(-110.73,-61.49)">
      <path d="m 130.15,99.28 c 2.9,-1.3 4.93,-4.22 4.94,-7.6 0,-4.61 -3.74,-8.35 -8.35,-8.35 -4.61,0 -8.35,3.74 -8.35,8.35 0,4.6 3.74,8.34 8.35,8.34 0.72,0 1.41,-0.1 2.08,-0.27 0.41,-0.18 0.85,-0.33 1.32,-0.46 z m -7.55,-6.13 c 0,-2.3 1.87,-4.17 4.18,-4.17 0.58,0 1.15,0.12 1.65,0.34 -0.11,0.31 -0.18,0.65 -0.18,1.0 0,1.53 1.19,2.79 2.7,2.91 -0.04,2.26 -1.89,4.09 -4.17,4.09 -2.3,0 -4.18,-1.87 -4.18,-4.17" style="fill:#ffffff;fill-opacity:1;fill-rule:nonzero;stroke:none;stroke-width:0.03" />
      <path d="m 146.01,83.31 c -4.61,0 -8.35,3.74 -8.35,8.35 0,3.35 1.97,6.23 4.82,7.56 0.55,0.14 1.08,0.32 1.56,0.54 0.63,0.15 1.28,0.24 1.96,0.24 4.6,0 8.34,-3.74 8.35,-8.35 0,-4.61 -3.74,-8.35 -8.35,-8.35 z m 0.04,14.01 c -2.3,0 -4.17,-1.87 -4.17,-4.17 0,-2.3 1.87,-4.17 4.17,-4.17 0.51,0 1.01,0.09 1.46,0.26 -0.13,0.33 -0.21,0.7 -0.21,1.08 0,1.61 1.3,2.92 2.92,2.92 -0.05,2.26 -1.9,4.08 -4.17,4.08" style="fill:#ffffff;fill-opacity:1;fill-rule:nonzero;stroke:none;stroke-width:0.03" />
      <path d="m 144.48,101.56 c -0.88,-0.89 -2.66,-1.31 -4.61,-1.49 0.0,-0.06 0.02,-0.13 0.02,-0.2 0,-0.14 -0.02,-0.28 -0.05,-0.41 -0.06,-0.24 -0.18,-0.46 -0.33,-0.65 -0.31,-0.37 -0.77,-0.62 -1.3,-0.62 -0.48,0 -0.92,0.2 -1.23,0.53 -0.16,0.17 -0.28,0.38 -0.36,0.61 -0.05,0.17 -0.09,0.35 -0.09,0.54 0,0.02 0.0,0.04 0.0,0.06 -0.03,0 -0.07,-7.94e-4 -0.11,-7.94e-4 -0.05,0 -0.11,0 -0.18,0 0.0,-0.02 0.0,-0.04 0.0,-0.06 0,-0.19 -0.03,-0.37 -0.09,-0.54 -0.07,-0.23 -0.2,-0.44 -0.36,-0.61 -0.31,-0.33 -0.74,-0.53 -1.23,-0.53 -0.53,0 -1.0,0.25 -1.32,0.63 -0.15,0.19 -0.26,0.41 -0.32,0.65 -0.03,0.13 -0.05,0.26 -0.05,0.4 0,0.07 0.01,0.14 0.02,0.21 -1.76,0.17 -3.61,0.58 -4.53,1.49 -0.29,0.28 -0.48,0.62 -0.55,1.02 -0.02,0.1 -0.03,0.22 -0.03,0.33 0,3.35 3.73,5.89 8.68,5.89 4.78,0 8.68,-2.64 8.68,-5.89 0,-0.11 -0.02,-0.22 -0.03,-0.33 -0.06,-0.39 -0.25,-0.73 -0.53,-1.02 z m -7.01,-1.7 c 0,-0.21 0.09,-0.4 0.24,-0.53 0.12,-0.11 0.28,-0.18 0.47,-0.18 0.2,0 0.38,0.08 0.51,0.22 0.12,0.12 0.2,0.3 0.2,0.49 0,0.04 -0.01,0.08 -0.02,0.13 -0.06,0.33 -0.34,0.58 -0.69,0.58 -0.36,0 -0.66,-0.28 -0.7,-0.64 -0.0,-0.02 -0.01,-0.05 -0.01,-0.07 z m -3.68,0 c 0,-0.19 0.07,-0.36 0.19,-0.49 0.13,-0.13 0.31,-0.22 0.52,-0.22 0.18,0 0.34,0.07 0.47,0.18 0.14,0.13 0.24,0.31 0.24,0.53 0,0.02 -0.01,0.04 -0.01,0.07 -0.03,0.35 -0.33,0.64 -0.7,0.64 -0.35,0 -0.63,-0.25 -0.69,-0.58 -0.0,-0.04 -0.02,-0.08 -0.02,-0.13 z m -0.16,6.82 c -0.93,0 -1.7,-0.76 -1.7,-1.7 h 0.49 0.49 c 0,0.39 0.32,0.72 0.72,0.72 0.39,0 0.72,-0.32 0.72,-0.72 h 0.49 0.49 c 0,0.93 -0.76,1.7 -1.7,1.7" style="fill:#ffffff;fill-opacity:1;fill-rule:nonzero;stroke:none;stroke-width:0.03" />
      <path d="m 115.82,89.87 c -1.14,-0.47 -2.52,-0.26 -3.29,0.5 -0.36,0.36 -0.7,0.99 -0.3,1.93 0.45,1.07 1.22,2.33 2.01,3.29 0.99,1.2 1.64,1.49 1.87,1.47 0.13,-0.01 0.27,-0.27 0.37,-0.67 l 0.02,0.0 c -0.44,-1.11 -0.69,-2.32 -0.69,-3.6 v -2.93" style="fill:#ffffff;fill-opacity:1;fill-rule:nonzero;stroke:none;stroke-width:0.03" />
      <path d="m 160.15,90.37 c -0.75,-0.75 -2.09,-0.96 -3.23,-0.52 v 2.95 c 0,1.29 -0.25,2.52 -0.71,3.65 0.09,0.36 0.22,0.6 0.35,0.61 0.23,0.01 0.88,-0.27 1.87,-1.47 0.78,-0.95 1.56,-2.21 2.01,-3.29 0.39,-0.94 0.05,-1.57 -0.3,-1.93" style="fill:#ffffff;fill-opacity:1;fill-rule:nonzero;stroke:none;stroke-width:0.03" />
      <path d="m 130.96,93.23 c -1.51,-0.11 -2.7,-1.37 -2.7,-2.91 0,-0.35 0.06,-0.69 0.18,-1.0 -0.5,-0.22 -1.06,-0.34 -1.65,-0.34 -2.3,0 -4.18,1.87 -4.18,4.17 0,2.3 1.87,4.17 4.18,4.17 2.28,0 4.13,-1.82 4.17,-4.09" style="fill:#282a2b;fill-opacity:1;fill-rule:nonzero;stroke:none;stroke-width:0.03" />
      <path d="m 146.05,97.32 c 2.27,0 4.12,-1.81 4.17,-4.08 -1.61,-0.0 -2.92,-1.31 -2.92,-2.92 0,-0.38 0.07,-0.75 0.21,-1.08 -0.45,-0.17 -0.95,-0.26 -1.46,-0.26 -2.3,0 -4.17,1.87 -4.17,4.17 0,2.3 1.87,4.17 4.17,4.17" style="fill:#282a2b;fill-opacity:1;fill-rule:nonzero;stroke:none;stroke-width:0.03" />
      <path d="m 146.29,102.92 c 0,-0.11 -0.0,-0.22 -0.01,-0.33 h 0.86 c 3.46,0 6.5,-1.81 8.23,-4.53 0.03,-0.05 0.07,-0.1 0.1,-0.16 0.3,0.33 0.66,0.46 0.96,0.48 0.04,0.0 0.08,0.0 0.13,0.0 0.83,0 1.79,-0.65 2.86,-1.95 0.86,-1.04 1.71,-2.43 2.21,-3.61 0.52,-1.24 0.31,-2.46 -0.58,-3.37 -1.01,-1.01 -2.65,-1.38 -4.15,-0.97 V 86.44 71.27 c 1e-5,-5.4 -4.37,-9.78 -9.78,-9.78 h -21.53 c -5.4,0 -9.78,4.37 -9.78,9.78 v 15.21 2.0 c -1.52,-0.42 -3.19,-0.07 -4.21,0.95 -0.89,0.9 -1.11,2.12 -0.58,3.37 0.5,1.18 1.34,2.56 2.21,3.61 1.07,1.29 2.03,1.95 2.86,1.95 0.04,0 0.08,-0.0 0.13,-0.0 0.31,-0.02 0.68,-0.15 1.0,-0.52 0.03,0.05 0.06,0.1 0.1,0.15 1.73,2.74 4.77,4.58 8.26,4.58 h 0.86 c -0.01,0.11 -0.01,0.22 -0.01,0.33 0,4.06 4.26,7.12 9.92,7.12 5.46,0 9.91,-3.19 9.91,-7.12 z m 13.86,-12.55 c 0.36,0.36 0.7,0.99 0.3,1.93 -0.45,1.07 -1.22,2.33 -2.01,3.29 -0.99,1.2 -1.64,1.49 -1.87,1.47 -0.12,-0.01 -0.26,-0.25 -0.35,-0.61 0.45,-1.12 0.71,-2.35 0.71,-3.65 v -2.95 c 1.13,-0.43 2.47,-0.22 3.23,0.52 z m -14.14,-7.05 c 4.61,0 8.35,3.74 8.35,8.35 -0.01,4.61 -3.75,8.35 -8.35,8.35 -0.67,0 -1.33,-0.08 -1.96,-0.24 -0.47,-0.22 -1.0,-0.4 -1.56,-0.54 -2.84,-1.33 -4.82,-4.21 -4.82,-7.56 0,-4.61 3.74,-8.35 8.35,-8.35 z m -29.52,13.09 c -0.09,0.39 -0.23,0.65 -0.37,0.67 -0.23,0.01 -0.88,-0.27 -1.87,-1.47 -0.78,-0.95 -1.56,-2.21 -2.01,-3.29 -0.39,-0.94 -0.05,-1.57 0.3,-1.93 0.76,-0.76 2.14,-0.97 3.29,-0.5 v 2.93 c 0,1.27 0.25,2.48 0.69,3.6 z m 1.9,-4.72 c 0,-4.61 3.74,-8.35 8.35,-8.35 4.61,0 8.35,3.74 8.35,8.35 -0.0,3.38 -2.03,6.3 -4.94,7.6 -0.46,0.12 -0.91,0.27 -1.32,0.46 -0.66,0.17 -1.36,0.27 -2.08,0.27 -4.61,0 -8.35,-3.74 -8.35,-8.34 z m 9.29,11.24 c 0,-0.11 0.01,-0.22 0.03,-0.33 0.07,-0.39 0.26,-0.73 0.55,-1.02 0.91,-0.9 2.76,-1.31 4.53,-1.49 -0.0,-0.06 -0.02,-0.13 -0.02,-0.21 0,-0.14 0.02,-0.27 0.05,-0.4 0.06,-0.24 0.17,-0.46 0.32,-0.65 0.31,-0.38 0.78,-0.63 1.32,-0.63 0.48,0 0.92,0.2 1.23,0.53 0.16,0.17 0.28,0.38 0.36,0.61 0.05,0.17 0.09,0.35 0.09,0.54 0,0.02 -0.0,0.04 -0.0,0.06 0.06,0 0.12,0 0.18,0 0.03,0 0.07,7.94e-4 0.11,7.94e-4 -0.0,-0.02 -0.0,-0.04 -0.0,-0.06 0,-0.19 0.03,-0.37 0.09,-0.54 0.07,-0.23 0.2,-0.44 0.36,-0.61 0.31,-0.32 0.74,-0.53 1.23,-0.53 0.52,0 0.99,0.24 1.3,0.62 0.15,0.19 0.27,0.41 0.33,0.65 0.03,0.13 0.05,0.27 0.05,0.41 0,0.07 -0.01,0.13 -0.02,0.2 1.94,0.18 3.73,0.59 4.61,1.49 0.28,0.28 0.46,0.62 0.53,1.02 0.01,0.11 0.03,0.21 0.03,0.33 0,3.24 -3.89,5.89 -8.68,5.89 -4.95,0 -8.68,-2.53 -8.68,-5.89" style="fill:#282a2b;fill-opacity:1;fill-rule:nonzero;stroke:none;stroke-width:0.03" />
      <path d="m 134.49,100.58 c 0.37,0 0.66,-0.28 0.7,-0.64 0.0,-0.02 0.01,-0.04 0.01,-0.07 0,-0.21 -0.09,-0.4 -0.24,-0.53 -0.12,-0.11 -0.29,-0.18 -0.47,-0.18 -0.2,0 -0.38,0.08 -0.52,0.22 -0.12,0.12 -0.19,0.3 -0.19,0.49 0,0.04 0.01,0.08 0.02,0.13 0.06,0.33 0.34,0.58 0.69,0.58" style="fill:#282a2b;fill-opacity:1;fill-rule:nonzero;stroke:none;stroke-width:0.03" />
      <path d="m 138.18,100.58 c 0.35,0 0.62,-0.25 0.69,-0.58 0.0,-0.04 0.02,-0.08 0.02,-0.13 0,-0.19 -0.07,-0.36 -0.2,-0.49 -0.13,-0.13 -0.31,-0.22 -0.51,-0.22 -0.18,0 -0.34,0.07 -0.47,0.18 -0.15,0.13 -0.24,0.31 -0.24,0.53 0,0.02 0.01,0.05 0.01,0.07 0.04,0.35 0.33,0.64 0.7,0.64" style="fill:#282a2b;fill-opacity:1;fill-rule:nonzero;stroke:none;stroke-width:0.03" />
      <path d="m 134.33,104.97 c -3.4e-4,0.39 -0.32,0.72 -0.72,0.72 -0.39,0 -0.72,-0.32 -0.72,-0.72 h -0.49 -0.49 c 0,0.93 0.76,1.7 1.7,1.7 0.93,0 1.7,-0.76 1.7,-1.7 h -0.49 -0.49" style="fill:#282a2b;fill-opacity:1;fill-rule:nonzero;stroke:none;stroke-width:0.03" />
      <path d="m 165.85,106.2 -0.22,-0.22 c -4.1,-4.1 -10.78,-4.1 -14.88,0 -1.78,1.78 -2.77,4.16 -2.77,6.68 0,2.52 0.98,4.9 2.77,6.68 l 0.08,0.08 c 1.66,1.66 3.85,2.5 6.04,2.5 2.19,-2.7e-4 4.37,-0.83 6.04,-2.5 2.45,-2.45 2.45,-6.44 0,-8.9 -0.57,-0.57 -1.5,-0.57 -2.08,0 -0.57,0.57 -0.57,1.5 0,2.08 1.3,1.3 1.3,3.42 0,4.73 -2.18,2.18 -5.73,2.18 -7.92,0 l -0.08,-0.08 c -1.22,-1.22 -1.9,-2.86 -1.9,-4.6 0,-1.73 0.67,-3.37 1.9,-4.6 2.95,-2.95 7.76,-2.95 10.71,0 l 0.22,0.22 c 4.23,4.23 4.23,11.13 0,15.37 -2.87,2.86 -6.68,4.45 -10.74,4.45 h -4.03 c 0.06,-0.28 0.11,-0.59 0.11,-0.94 0,-4.96 -7.31,-7.35 -7.23,-10.18 0.19,-6.94 -9.38,-7.21 -9.58,-0.27 -0.19,6.97 -1.11,14.35 6.29,14.35 0.64,0 1.26,-0.0 1.86,-0.0 0.03,0.0 0.07,0.01 0.11,0.01 h 12.46 c 4.84,0 9.4,-1.88 12.82,-5.31 5.38,-5.38 5.38,-14.15 0,-19.54" style="fill:#282a2b;fill-opacity:1;fill-rule:nonzero;stroke:none;stroke-width:0.03" />
   </g>
</svg>