<svg width="64" height="64" viewBox="0 0 64 64" fill="none" xmlns="http://www.w3.org/2000/svg">
<path d="M10.5431 34.0015C10.5431 39.7338 12.8202 45.2312 16.8735 49.2845C20.9268 53.3378 26.4243 55.6149 32.1565 55.6149C37.8887 55.6149 43.3862 53.3378 47.4395 49.2845C51.4928 45.2312 53.7699 39.7338 53.7699 34.0015C53.7699 28.2693 51.4928 22.7719 47.4395 18.7186C43.3862 14.6653 37.8887 12.3882 32.1565 12.3882C26.4243 12.3882 20.9268 14.6653 16.8735 18.7186C12.8202 22.7719 10.5431 28.2693 10.5431 34.0015Z" fill="#17A09A"/>
<path d="M12.6517 49.2891C8.96165 49.2891 6.85303 48.2347 5.79872 46.6533C4.74441 44.5447 5.79872 40.8546 8.96165 36.6373C8.96165 36.1102 9.48881 36.1102 10.016 36.6373C10.5431 36.6373 10.5431 37.1645 10.016 37.6916C6.85303 41.3817 5.79872 44.0175 6.85303 46.1261C7.90734 48.2347 11.5974 48.7619 16.869 47.7076C22.6677 46.6533 29.5207 44.0175 36.3738 40.3274C43.2268 36.6373 49.0255 32.4201 53.2427 28.2028C56.9328 24.5127 58.5143 20.8226 57.46 18.714C56.4057 16.6054 52.7156 16.0782 46.9169 17.1326C46.3897 17.1326 46.3897 17.1326 45.8626 16.6054C45.8626 16.0782 45.8626 16.0782 46.3897 15.5511C52.7156 14.4968 56.9328 15.0239 57.9871 17.6597C59.5686 20.2955 57.9871 23.9856 53.7699 28.73C49.5526 32.9472 43.7539 37.6916 36.9009 41.3817C30.0479 45.0718 22.6677 47.7076 16.869 48.7619C15.2875 49.2891 13.7061 49.2891 12.6517 49.2891Z" fill="#DF4E38"/>
<path d="M62.7315 39.8003H58.5143C57.9871 39.8003 57.9871 39.2731 57.9871 39.2731L58.5143 38.7459H62.2044C62.7315 38.7459 62.7315 39.2731 62.7315 39.2731V39.8003Z" fill="#17A09A"/>
<path d="M60.6229 41.9089C60.0958 41.9089 60.0958 41.3817 60.0958 41.3817V37.1645C60.0958 36.6373 60.6229 36.6373 60.6229 36.6373C61.1501 36.6373 61.1501 37.1645 61.1501 37.1645V40.8546C61.1501 41.3817 61.1501 41.9089 60.6229 41.9089ZM4.7444 27.1485H1.05431C0.527156 27.1485 0 27.1485 0 26.6214C0 26.0942 0.527156 26.0942 0.527156 26.0942H4.21725C4.7444 26.0942 4.7444 26.6214 4.7444 26.6214C5.27156 27.1485 5.27156 27.1485 4.7444 27.1485Z" fill="#17A09A"/>
<path d="M2.63577 29.2571C2.10861 29.2571 2.10861 28.73 2.10861 28.73V24.5127C2.10861 23.9856 2.63577 23.9856 2.63577 23.9856C3.16292 23.9856 3.16292 24.5127 3.16292 24.5127V28.2028C3.69008 28.73 3.16292 29.2571 2.63577 29.2571Z" fill="#17A09A"/>
<path d="M6.85301 33.4744H2.63577C2.10861 33.4744 2.10861 32.9472 2.10861 32.9472C2.10861 32.4201 2.63577 32.4201 2.63577 32.4201H6.32586C6.85301 32.4201 6.85301 32.9472 6.85301 32.9472C7.38017 32.9472 6.85301 33.4744 6.85301 33.4744Z" fill="#17A09A"/>
<path d="M4.74441 35.0559C4.21725 35.0559 4.21725 34.5287 4.21725 34.5287V30.8386C4.21725 30.3115 4.74441 30.3115 4.74441 30.3115C5.27157 30.3115 5.27157 30.8386 5.27157 30.8386V34.5287C5.27157 34.5287 5.27157 35.0559 4.74441 35.0559Z" fill="#17A09A"/>
<path d="M47.444 9.75237H43.7539C43.2268 9.75237 43.2268 9.22521 43.2268 9.22521C43.2268 8.69806 43.7539 8.69806 43.7539 8.69806H47.444C47.9712 8.69806 47.9712 9.22521 47.9712 9.22521C48.4983 9.22521 47.9712 9.75237 47.444 9.75237Z" fill="#17A09A"/>
<path d="M45.8625 11.3338C45.3354 11.3338 45.3354 10.8067 45.3354 10.8067V7.1166C45.3354 6.58945 45.8625 6.58945 45.8625 6.58945L46.3897 7.1166V10.8067C46.3897 11.3338 46.3897 11.3338 45.8625 11.3338Z" fill="#17A09A"/>
<path d="M10.016 54.0335C5.79872 54.0335 2.10863 52.9792 1.05432 50.3434C-1.0543 46.6533 1.58148 40.3274 8.4345 33.4744C8.96166 32.9472 8.96166 32.9472 9.48881 33.4744C10.016 34.0016 10.016 34.0016 9.48881 34.5287C3.16294 40.8546 0.527164 46.1261 2.10863 49.2891C5.27157 55.0878 21.6134 52.452 37.9552 43.4904C54.297 34.5287 65.3673 22.4041 62.2044 16.6054C60.0958 12.9153 53.2427 12.3882 44.2811 15.0239C43.7539 15.0239 43.7539 15.0239 43.2268 14.4968C43.2268 13.9696 43.2268 13.9696 43.7539 13.4425C53.7699 10.8067 61.1501 11.3339 63.2587 15.5511C66.9488 21.877 55.8785 35.0559 38.4824 44.5447C27.9393 50.3434 17.3961 54.0335 10.016 54.0335Z" fill="#FDD000"/>
</svg>
