<svg xmlns="http://www.w3.org/2000/svg" width="128" height="128" version="1.1">
 <g>
  <title>background</title>
  <rect x="-1" y="-1" width="130" height="130" id="canvas_background" fill="none"/>
 </g>

 <g>
  <title>Layer 1</title>
  <path d="m29.37413,8.76867c1.65,0 3.3,0 5,0c0,2.31 0,4.62 0,7c1.05187,-0.08701 1.05187,-0.08701 2.125,-0.17578c7.19184,-0.342 11.24786,0.72703 16.875,5.17578c0.825,0.59812 1.65,1.19625 2.5,1.8125c0.495,0.39188 0.99,0.78375 1.5,1.1875c-2.475,-2.97 -2.475,-2.97 -5,-6c4.31134,0.73722 5.99374,2.66203 8.66797,5.97266c3.6902,5.61647 3.47905,10.55733 2.33203,17.02734c-0.59242,2.3003 -1.21908,4.59199 -1.875,6.875c-1.98418,7.11095 -3.31207,14.26373 -4.51172,21.54297c-0.61328,3.58203 -0.61328,3.58203 -1.21094,5.58984c-0.65071,3.22196 -0.36079,6.42206 -0.15234,9.67969c0.04375,0.71245 0.0875,1.4249 0.13257,2.15894c0.40813,5.45971 1.62285,10.03703 3.61743,15.15356c0,0.99 0,1.98 0,3c1.20656,0.46406 1.20656,0.46406 2.4375,0.9375c2.5625,1.0625 2.5625,1.0625 3.5625,2.0625c3.36306,0.37367 6.64018,0.40921 10,0c2.33455,-1.83358 2.33455,-1.83358 4,-4c2.60547,-0.62891 2.60547,-0.62891 5,-1c-0.0232,-1.06477 -0.04641,-2.12953 -0.07031,-3.22656c-0.0188,-1.46614 -0.037,-2.93229 -0.05469,-4.39844c-0.01676,-0.69352 -0.03352,-1.38703 -0.05078,-2.10156c-0.04099,-4.591 0.40888,-8.86822 1.18359,-13.39453c1.58009,-10.38465 1.13023,-20.84067 0.99219,-31.31641c-0.05342,-4.10285 -0.09322,-8.20552 -0.125,-12.30859c-0.0166,-0.92615 -0.03319,-1.8523 -0.05029,-2.80651c-0.06127,-8.11648 1.3499,-13.8527 6.17529,-20.4474c3.96,0.33 7.92,0.66 12,1c3.51585,8.78963 2.48017,16.86932 0.0625,25.875c-2.09778,7.8642 -2.50047,15.41588 -2.69678,23.52905c-0.17674,6.15082 -0.77216,11.99242 -1.92822,18.03345c-2.92104,13.88129 -2.92104,13.88129 0.08594,26.88281c0.48726,0.5543 0.97453,1.1086 1.47656,1.67969c0,0.66 0,1.32 0,2c-2.42961,1.21481 -4.16384,1.23607 -6.875,1.3125c-1.29551,0.05607 -1.29551,0.05607 -2.61719,0.11328c-3.25671,-0.55293 -4.41168,-1.95429 -6.50781,-4.42578c-0.8482,0.47051 -1.69641,0.94102 -2.57031,1.42578c-10.29409,5.53215 -23.57363,11.49598 -35.40625,7.98828c-9.11307,-3.83523 -14.29276,-11.9518 -18.01563,-20.73828c-2.08846,-5.54495 -3.56839,-10.96022 -4.57031,-16.80078c-0.13003,-0.74194 -0.26007,-1.48387 -0.39404,-2.24829c-0.92357,-5.45377 -1.51333,-10.87891 -1.83252,-16.40405c-0.07974,-2.26085 -0.07974,-2.26085 -1.21094,-4.22266c-0.07813,-4.55461 0.09646,-9.10558 0.24194,-13.65796c0.07017,-2.26685 0.12453,-4.53372 0.17798,-6.80102c0.04265,-1.43949 0.08624,-2.87894 0.13086,-4.31836c0.03779,-1.31219 0.07557,-2.62437 0.1145,-3.97632c0.33472,-3.24634 0.33472,-3.24634 2.33472,-6.24634c0.67259,-2.33163 1.33847,-4.6652 2,-7c0.93377,-2.36892 1.95657,-4.67599 3,-7z" fill="#2B2A2A" id="svg_4" style="&#10;    fill: #3875f6;&#10;"/>
  <path d="m31.37413,11.1942c0.99,0 1.98,0 3,0c0.125,3.375 0.125,3.375 0,7c-1.33333,1.33333 -2.66667,2.66667 -4,4c-4.38784,12.3853 -4.79127,24.98664 -5,38c-2,-2 -2,-2 -2.16699,-5.00928c0.03964,-1.2628 0.07928,-2.52559 0.12011,-3.82666c0.02029,-0.67576 0.04057,-1.35152 0.06147,-2.04776c0.0456,-1.43086 0.09638,-2.86157 0.15191,-4.29208c0.0829,-2.18339 0.14494,-4.36665 0.20459,-6.55078c0.04692,-1.39067 0.09506,-2.7813 0.14453,-4.17188c0.04416,-1.26505 0.08831,-2.5301 0.13379,-3.83349c0.32791,-3.05662 0.83984,-4.66622 2.35059,-7.26807c0.30937,-1.13438 0.61875,-2.26875 0.9375,-3.4375c0.99435,-3.33401 1.9665,-5.79578 4.0625,-8.5625z" fill="#D20303" id="svg_7" style="&#10;    fill: #63d676;&#10;"/>
  <path d="m34.37413,9.1942c7.23411,1.16679 13.1923,3.41093 19,8c1.15234,2.02344 1.15234,2.02344 2,4c1.30506,1.6889 2.63361,3.36033 4,5c-3.9088,-1.65372 -6.76212,-4.30176 -10,-7c-3.2294,-1.97352 -5.99704,-2.35693 -9.75,-2.625c-0.98484,-0.07477 -1.96969,-0.14953 -2.98437,-0.22656c-0.74766,-0.04899 -1.49532,-0.09797 -2.26563,-0.14844c0,-2.31 0,-4.62 0,-7z" fill="#737373" id="svg_8" style="&#10;    fill: #63d676;&#10;"/>
  <path d="m29.37413,9.1942c1.65,0 3.3,0 5,0c0,0.66 0,1.32 0,2c-0.99,0.33 -1.98,0.66 -3,1c-3.05694,4.03516 -3.88837,8.15648 -5,13c-0.33,0.66 -0.66,1.32 -1,2c-0.12876,1.6311 -0.20222,3.26676 -0.24609,4.90234c-0.03287,0.9726 -0.06575,1.9452 -0.09961,2.94727c-0.06108,2.05458 -0.11839,4.10927 -0.17188,6.16406c-0.03416,0.97389 -0.06832,1.94778 -0.10351,2.95117c-0.02506,0.89324 -0.05012,1.78648 -0.07593,2.70679c-0.30298,2.32837 -0.30298,2.32837 -2.30298,5.32837c-0.05795,-4.27078 -0.09358,-8.54145 -0.125,-12.8125c-0.01676,-1.21494 -0.03352,-2.42988 -0.05078,-3.68164c-0.00645,-1.16338 -0.01289,-2.32676 -0.01953,-3.52539c-0.01048,-1.07355 -0.02095,-2.1471 -0.03174,-3.25318c0.22705,-2.72729 0.22705,-2.72729 2.22705,-5.72729c0.67259,-2.33163 1.33847,-4.6652 2,-7c0.93377,-2.36892 1.95657,-4.67599 3,-7z" fill="#402424" id="svg_9" style="&#10;    fill: #63d676;&#10;"/>
  <path d="m94.75694,15.99889c0.90492,0.0232 1.80984,0.04641 2.74219,0.07031c1.36511,0.02707 1.36511,0.02707 2.75781,0.05469c0.69867,0.0232 1.39734,0.04641 2.11719,0.07031c-0.64844,1.89063 -0.64844,1.89063 -2,4c-2.60156,1.04688 -2.60156,1.04688 -5.625,1.75c-1.50434,0.36352 -1.50434,0.36352 -3.03907,0.73438c-0.77085,0.17015 -1.54171,0.34031 -2.33593,0.51562c1.08042,-6.84265 1.08042,-6.84265 5.38281,-7.19531z" fill="#EAEAEA" id="svg_15"/>
  <path d="m89.37413,33.1942c0.33,0 0.66,0 1,0c0,6.6 0,13.2 0,20c-0.66,-0.33 -1.32,-0.66 -2,-1c-1.49655,-5.83006 -1.17753,-12.13853 0,-18c0.33,-0.33 0.66,-0.66 1,-1z" fill="#8D8D8D" id="svg_17" style="&#10;    fill: #63d676;&#10;"/>
  <path d="m34.37413,11.1942c6.4,0.49231 6.4,0.49231 9.4375,3.0625c0.77344,0.95906 0.77344,0.95906 1.5625,1.9375c-3.63,0 -7.26,0 -11,0c0,-1.65 0,-3.3 0,-5z" fill="#F9F9F9" id="svg_18"/>
  <path d="m52.37413,18.1942c4.37704,0.72316 6.07826,2.82213 8.80469,6.14453c1.53638,2.38491 1.69981,4.0807 1.19531,6.85547c-3.45102,-4.2474 -6.73279,-8.61105 -10,-13z" fill="#434343" id="svg_20" style="&#10;    fill: #63d676;&#10;"/>
  <path d="m29.37413,9.1942c1.65,0 3.3,0 5,0c0,0.66 0,1.32 0,2c-0.99,0.33 -1.98,0.66 -3,1c-2.63658,3.54925 -3.4929,6.6389 -4,11c-0.33,0 -0.66,0 -1,0c-1.26332,-4.21107 -1.00442,-6.54567 0.9375,-10.375c0.67225,-1.21688 1.35484,-2.42836 2.0625,-3.625z" fill="#4C2020" id="svg_21" style="&#10;    fill: #63d676;&#10;"/>
  <path d="m92.37413,13.1942c0.66,0.99 1.32,1.98 2,3c-0.61875,0.5775 -1.2375,1.155 -1.875,1.75c-1.93847,2.0525 -3.02514,3.68367 -4.125,6.25c-0.65234,-1.76562 -0.65234,-1.76562 -1,-4c0.99609,-1.92187 0.99609,-1.92187 2.4375,-3.75c0.47309,-0.61359 0.94617,-1.22719 1.43359,-1.85937c0.37254,-0.45891 0.74508,-0.91782 1.12891,-1.39063z" fill="#494949" id="svg_24" style="&#10;    fill: #3875f6;&#10;"/>
 </g>
</svg>